<svg width="20" height="22" viewBox="0 0 20 22" fill="none" xmlns="http://www.w3.org/2000/svg">
<path d="M16 4.01L16.01 3.999M19 3V19C19 19.5304 18.7893 20.0391 18.4142 20.4142C18.0391 20.7893 17.5304 21 17 21H3C2.46957 21 1.96086 20.7893 1.58579 20.4142C1.21071 20.0391 1 19.5304 1 19V3C1 2.46957 1.21071 1.96086 1.58579 1.58579C1.96086 1.21071 2.46957 1 3 1H17C17.5304 1 18.0391 1.21071 18.4142 1.58579C18.7893 1.96086 19 2.46957 19 3Z" stroke="#545D6A" stroke-width="2" stroke-linecap="round" stroke-linejoin="round"/>
<path d="M10 18C11.5913 18 13.1174 17.3679 14.2426 16.2426C15.3679 15.1174 16 13.5913 16 12C16 10.4087 15.3679 8.88258 14.2426 7.75736C13.1174 6.63214 11.5913 6 10 6C8.4087 6 6.88258 6.63214 5.75736 7.75736C4.63214 8.88258 4 10.4087 4 12C4 13.5913 4.63214 15.1174 5.75736 16.2426C6.88258 17.3679 8.4087 18 10 18V18Z" stroke="#545D6A" stroke-width="2" stroke-linecap="round" stroke-linejoin="round"/>
<path d="M10 15C9.20435 15 8.44129 14.6839 7.87868 14.1213C7.31607 13.5587 7 12.7956 7 12" stroke="#545D6A" stroke-width="2" stroke-linecap="round" stroke-linejoin="round"/>
</svg>
