<svg width="24" height="18" viewBox="0 0 24 18" fill="none" xmlns="http://www.w3.org/2000/svg">
<path d="M20.25 1.5C20.4489 1.5 20.6397 1.57902 20.7803 1.71967C20.921 1.86032 21 2.05109 21 2.25V13.5H3V2.25C3 2.05109 3.07902 1.86032 3.21967 1.71967C3.36032 1.57902 3.55109 1.5 3.75 1.5H20.25ZM3.75 0C3.15326 0 2.58097 0.237053 2.15901 0.65901C1.73705 1.08097 1.5 1.65326 1.5 2.25V15H22.5V2.25C22.5 1.65326 22.2629 1.08097 21.841 0.65901C21.419 0.237053 20.8467 0 20.25 0H3.75ZM0 15.75H24C24 16.3467 23.7629 16.919 23.341 17.341C22.919 17.7629 22.3467 18 21.75 18H2.25C1.65326 18 1.08097 17.7629 0.65901 17.341C0.237053 16.919 0 16.3467 0 15.75H0Z" fill="#545D6A"/>
</svg>
